<mxfile host="app.diagrams.net" modified="2020-12-31T16:13:54.238Z" agent="5.0 (Windows NT 10.0; Win64; x64) AppleWebKit/537.36 (KHTML, like Gecko) Chrome/87.0.4280.88 Safari/537.36 Edg/87.0.664.66" etag="UhyOFPDIy1IWGbp9mpGZ" version="14.1.4" type="github">
  <diagram id="q19K3E0M6X_gfoFTbuHp" name="Page-1">
    <mxGraphModel dx="2272" dy="1934" grid="1" gridSize="10" guides="1" tooltips="1" connect="1" arrows="1" fold="1" page="1" pageScale="1" pageWidth="850" pageHeight="1100" math="0" shadow="0">
      <root>
        <mxCell id="0" />
        <mxCell id="1" parent="0" />
        <mxCell id="-I7mUb_nC6sz9EPlqk-F-1" value="" style="whiteSpace=wrap;html=1;aspect=fixed;" vertex="1" parent="1">
          <mxGeometry x="90" y="250" width="400" height="400" as="geometry" />
        </mxCell>
        <mxCell id="-I7mUb_nC6sz9EPlqk-F-2" value="Budget" style="text;html=1;strokeColor=none;fillColor=none;align=center;verticalAlign=middle;whiteSpace=wrap;rounded=0;fontSize=24;" vertex="1" parent="1">
          <mxGeometry x="270" y="260" width="40" height="20" as="geometry" />
        </mxCell>
        <mxCell id="-I7mUb_nC6sz9EPlqk-F-3" value="" style="shape=table;html=1;whiteSpace=wrap;startSize=0;container=1;collapsible=0;childLayout=tableLayout;" vertex="1" parent="1">
          <mxGeometry x="202.5" y="294.5" width="175" height="311" as="geometry" />
        </mxCell>
        <mxCell id="-I7mUb_nC6sz9EPlqk-F-4" value="" style="shape=partialRectangle;html=1;whiteSpace=wrap;collapsible=0;dropTarget=0;pointerEvents=0;fillColor=none;top=0;left=0;bottom=0;right=0;points=[[0,0.5],[1,0.5]];portConstraint=eastwest;" vertex="1" parent="-I7mUb_nC6sz9EPlqk-F-3">
          <mxGeometry width="175" height="30" as="geometry" />
        </mxCell>
        <mxCell id="-I7mUb_nC6sz9EPlqk-F-5" value="Name" style="shape=partialRectangle;html=1;whiteSpace=wrap;connectable=0;fillColor=none;top=0;left=0;bottom=0;right=0;overflow=hidden;" vertex="1" parent="-I7mUb_nC6sz9EPlqk-F-4">
          <mxGeometry width="88" height="30" as="geometry" />
        </mxCell>
        <mxCell id="-I7mUb_nC6sz9EPlqk-F-6" value="Type" style="shape=partialRectangle;html=1;whiteSpace=wrap;connectable=0;fillColor=none;top=0;left=0;bottom=0;right=0;overflow=hidden;" vertex="1" parent="-I7mUb_nC6sz9EPlqk-F-4">
          <mxGeometry x="88" width="87" height="30" as="geometry" />
        </mxCell>
        <mxCell id="-I7mUb_nC6sz9EPlqk-F-8" value="" style="shape=partialRectangle;html=1;whiteSpace=wrap;collapsible=0;dropTarget=0;pointerEvents=0;fillColor=none;top=0;left=0;bottom=0;right=0;points=[[0,0.5],[1,0.5]];portConstraint=eastwest;" vertex="1" parent="-I7mUb_nC6sz9EPlqk-F-3">
          <mxGeometry y="30" width="175" height="46" as="geometry" />
        </mxCell>
        <mxCell id="-I7mUb_nC6sz9EPlqk-F-9" value="_id" style="shape=partialRectangle;html=1;whiteSpace=wrap;connectable=0;fillColor=none;top=0;left=0;bottom=0;right=0;overflow=hidden;" vertex="1" parent="-I7mUb_nC6sz9EPlqk-F-8">
          <mxGeometry width="88" height="46" as="geometry" />
        </mxCell>
        <mxCell id="-I7mUb_nC6sz9EPlqk-F-10" value="ObjectId" style="shape=partialRectangle;html=1;whiteSpace=wrap;connectable=0;fillColor=none;top=0;left=0;bottom=0;right=0;overflow=hidden;" vertex="1" parent="-I7mUb_nC6sz9EPlqk-F-8">
          <mxGeometry x="88" width="87" height="46" as="geometry" />
        </mxCell>
        <mxCell id="-I7mUb_nC6sz9EPlqk-F-12" value="" style="shape=partialRectangle;html=1;whiteSpace=wrap;collapsible=0;dropTarget=0;pointerEvents=0;fillColor=none;top=0;left=0;bottom=0;right=0;points=[[0,0.5],[1,0.5]];portConstraint=eastwest;" vertex="1" parent="-I7mUb_nC6sz9EPlqk-F-3">
          <mxGeometry y="76" width="175" height="47" as="geometry" />
        </mxCell>
        <mxCell id="-I7mUb_nC6sz9EPlqk-F-13" value="userId" style="shape=partialRectangle;html=1;whiteSpace=wrap;connectable=0;fillColor=none;top=0;left=0;bottom=0;right=0;overflow=hidden;" vertex="1" parent="-I7mUb_nC6sz9EPlqk-F-12">
          <mxGeometry width="88" height="47" as="geometry" />
        </mxCell>
        <mxCell id="-I7mUb_nC6sz9EPlqk-F-14" value="ObjectId" style="shape=partialRectangle;html=1;whiteSpace=wrap;connectable=0;fillColor=none;top=0;left=0;bottom=0;right=0;overflow=hidden;" vertex="1" parent="-I7mUb_nC6sz9EPlqk-F-12">
          <mxGeometry x="88" width="87" height="47" as="geometry" />
        </mxCell>
        <mxCell id="-I7mUb_nC6sz9EPlqk-F-17" style="shape=partialRectangle;html=1;whiteSpace=wrap;collapsible=0;dropTarget=0;pointerEvents=0;fillColor=none;top=0;left=0;bottom=0;right=0;points=[[0,0.5],[1,0.5]];portConstraint=eastwest;" vertex="1" parent="-I7mUb_nC6sz9EPlqk-F-3">
          <mxGeometry y="123" width="175" height="47" as="geometry" />
        </mxCell>
        <mxCell id="-I7mUb_nC6sz9EPlqk-F-18" value="month" style="shape=partialRectangle;html=1;whiteSpace=wrap;connectable=0;fillColor=none;top=0;left=0;bottom=0;right=0;overflow=hidden;" vertex="1" parent="-I7mUb_nC6sz9EPlqk-F-17">
          <mxGeometry width="88" height="47" as="geometry" />
        </mxCell>
        <mxCell id="-I7mUb_nC6sz9EPlqk-F-19" value="String" style="shape=partialRectangle;html=1;whiteSpace=wrap;connectable=0;fillColor=none;top=0;left=0;bottom=0;right=0;overflow=hidden;" vertex="1" parent="-I7mUb_nC6sz9EPlqk-F-17">
          <mxGeometry x="88" width="87" height="47" as="geometry" />
        </mxCell>
        <mxCell id="-I7mUb_nC6sz9EPlqk-F-20" style="shape=partialRectangle;html=1;whiteSpace=wrap;collapsible=0;dropTarget=0;pointerEvents=0;fillColor=none;top=0;left=0;bottom=0;right=0;points=[[0,0.5],[1,0.5]];portConstraint=eastwest;" vertex="1" parent="-I7mUb_nC6sz9EPlqk-F-3">
          <mxGeometry y="170" width="175" height="47" as="geometry" />
        </mxCell>
        <mxCell id="-I7mUb_nC6sz9EPlqk-F-21" value="year" style="shape=partialRectangle;html=1;whiteSpace=wrap;connectable=0;fillColor=none;top=0;left=0;bottom=0;right=0;overflow=hidden;" vertex="1" parent="-I7mUb_nC6sz9EPlqk-F-20">
          <mxGeometry width="88" height="47" as="geometry" />
        </mxCell>
        <mxCell id="-I7mUb_nC6sz9EPlqk-F-22" value="Number" style="shape=partialRectangle;html=1;whiteSpace=wrap;connectable=0;fillColor=none;top=0;left=0;bottom=0;right=0;overflow=hidden;" vertex="1" parent="-I7mUb_nC6sz9EPlqk-F-20">
          <mxGeometry x="88" width="87" height="47" as="geometry" />
        </mxCell>
        <mxCell id="-I7mUb_nC6sz9EPlqk-F-23" style="shape=partialRectangle;html=1;whiteSpace=wrap;collapsible=0;dropTarget=0;pointerEvents=0;fillColor=none;top=0;left=0;bottom=0;right=0;points=[[0,0.5],[1,0.5]];portConstraint=eastwest;" vertex="1" parent="-I7mUb_nC6sz9EPlqk-F-3">
          <mxGeometry y="217" width="175" height="47" as="geometry" />
        </mxCell>
        <mxCell id="-I7mUb_nC6sz9EPlqk-F-24" value="createdOn" style="shape=partialRectangle;html=1;whiteSpace=wrap;connectable=0;fillColor=none;top=0;left=0;bottom=0;right=0;overflow=hidden;" vertex="1" parent="-I7mUb_nC6sz9EPlqk-F-23">
          <mxGeometry width="88" height="47" as="geometry" />
        </mxCell>
        <mxCell id="-I7mUb_nC6sz9EPlqk-F-25" value="Date" style="shape=partialRectangle;html=1;whiteSpace=wrap;connectable=0;fillColor=none;top=0;left=0;bottom=0;right=0;overflow=hidden;" vertex="1" parent="-I7mUb_nC6sz9EPlqk-F-23">
          <mxGeometry x="88" width="87" height="47" as="geometry" />
        </mxCell>
        <mxCell id="-I7mUb_nC6sz9EPlqk-F-26" style="shape=partialRectangle;html=1;whiteSpace=wrap;collapsible=0;dropTarget=0;pointerEvents=0;fillColor=none;top=0;left=0;bottom=0;right=0;points=[[0,0.5],[1,0.5]];portConstraint=eastwest;" vertex="1" parent="-I7mUb_nC6sz9EPlqk-F-3">
          <mxGeometry y="264" width="175" height="47" as="geometry" />
        </mxCell>
        <mxCell id="-I7mUb_nC6sz9EPlqk-F-27" value="modifiedOn" style="shape=partialRectangle;html=1;whiteSpace=wrap;connectable=0;fillColor=none;top=0;left=0;bottom=0;right=0;overflow=hidden;" vertex="1" parent="-I7mUb_nC6sz9EPlqk-F-26">
          <mxGeometry width="88" height="47" as="geometry" />
        </mxCell>
        <mxCell id="-I7mUb_nC6sz9EPlqk-F-28" value="Date" style="shape=partialRectangle;html=1;whiteSpace=wrap;connectable=0;fillColor=none;top=0;left=0;bottom=0;right=0;overflow=hidden;" vertex="1" parent="-I7mUb_nC6sz9EPlqk-F-26">
          <mxGeometry x="88" width="87" height="47" as="geometry" />
        </mxCell>
        <mxCell id="-I7mUb_nC6sz9EPlqk-F-30" value="" style="whiteSpace=wrap;html=1;aspect=fixed;" vertex="1" parent="1">
          <mxGeometry x="700" y="240" width="490" height="490" as="geometry" />
        </mxCell>
        <mxCell id="-I7mUb_nC6sz9EPlqk-F-32" value="" style="shape=table;html=1;whiteSpace=wrap;startSize=0;container=1;collapsible=0;childLayout=tableLayout;" vertex="1" parent="1">
          <mxGeometry x="862.5" y="294.5" width="175" height="405" as="geometry" />
        </mxCell>
        <mxCell id="-I7mUb_nC6sz9EPlqk-F-33" value="" style="shape=partialRectangle;html=1;whiteSpace=wrap;collapsible=0;dropTarget=0;pointerEvents=0;fillColor=none;top=0;left=0;bottom=0;right=0;points=[[0,0.5],[1,0.5]];portConstraint=eastwest;" vertex="1" parent="-I7mUb_nC6sz9EPlqk-F-32">
          <mxGeometry width="175" height="30" as="geometry" />
        </mxCell>
        <mxCell id="-I7mUb_nC6sz9EPlqk-F-34" value="Name" style="shape=partialRectangle;html=1;whiteSpace=wrap;connectable=0;fillColor=none;top=0;left=0;bottom=0;right=0;overflow=hidden;" vertex="1" parent="-I7mUb_nC6sz9EPlqk-F-33">
          <mxGeometry width="88" height="30" as="geometry" />
        </mxCell>
        <mxCell id="-I7mUb_nC6sz9EPlqk-F-35" value="Type" style="shape=partialRectangle;html=1;whiteSpace=wrap;connectable=0;fillColor=none;top=0;left=0;bottom=0;right=0;overflow=hidden;" vertex="1" parent="-I7mUb_nC6sz9EPlqk-F-33">
          <mxGeometry x="88" width="87" height="30" as="geometry" />
        </mxCell>
        <mxCell id="-I7mUb_nC6sz9EPlqk-F-36" value="" style="shape=partialRectangle;html=1;whiteSpace=wrap;collapsible=0;dropTarget=0;pointerEvents=0;fillColor=none;top=0;left=0;bottom=0;right=0;points=[[0,0.5],[1,0.5]];portConstraint=eastwest;" vertex="1" parent="-I7mUb_nC6sz9EPlqk-F-32">
          <mxGeometry y="30" width="175" height="46" as="geometry" />
        </mxCell>
        <mxCell id="-I7mUb_nC6sz9EPlqk-F-37" value="_id" style="shape=partialRectangle;html=1;whiteSpace=wrap;connectable=0;fillColor=none;top=0;left=0;bottom=0;right=0;overflow=hidden;" vertex="1" parent="-I7mUb_nC6sz9EPlqk-F-36">
          <mxGeometry width="88" height="46" as="geometry" />
        </mxCell>
        <mxCell id="-I7mUb_nC6sz9EPlqk-F-38" value="ObjectId" style="shape=partialRectangle;html=1;whiteSpace=wrap;connectable=0;fillColor=none;top=0;left=0;bottom=0;right=0;overflow=hidden;" vertex="1" parent="-I7mUb_nC6sz9EPlqk-F-36">
          <mxGeometry x="88" width="87" height="46" as="geometry" />
        </mxCell>
        <mxCell id="-I7mUb_nC6sz9EPlqk-F-39" value="" style="shape=partialRectangle;html=1;whiteSpace=wrap;collapsible=0;dropTarget=0;pointerEvents=0;fillColor=none;top=0;left=0;bottom=0;right=0;points=[[0,0.5],[1,0.5]];portConstraint=eastwest;" vertex="1" parent="-I7mUb_nC6sz9EPlqk-F-32">
          <mxGeometry y="76" width="175" height="47" as="geometry" />
        </mxCell>
        <mxCell id="-I7mUb_nC6sz9EPlqk-F-40" value="userId" style="shape=partialRectangle;html=1;whiteSpace=wrap;connectable=0;fillColor=none;top=0;left=0;bottom=0;right=0;overflow=hidden;" vertex="1" parent="-I7mUb_nC6sz9EPlqk-F-39">
          <mxGeometry width="88" height="47" as="geometry" />
        </mxCell>
        <mxCell id="-I7mUb_nC6sz9EPlqk-F-41" value="ObjectId" style="shape=partialRectangle;html=1;whiteSpace=wrap;connectable=0;fillColor=none;top=0;left=0;bottom=0;right=0;overflow=hidden;" vertex="1" parent="-I7mUb_nC6sz9EPlqk-F-39">
          <mxGeometry x="88" width="87" height="47" as="geometry" />
        </mxCell>
        <mxCell id="-I7mUb_nC6sz9EPlqk-F-42" style="shape=partialRectangle;html=1;whiteSpace=wrap;collapsible=0;dropTarget=0;pointerEvents=0;fillColor=none;top=0;left=0;bottom=0;right=0;points=[[0,0.5],[1,0.5]];portConstraint=eastwest;" vertex="1" parent="-I7mUb_nC6sz9EPlqk-F-32">
          <mxGeometry y="123" width="175" height="47" as="geometry" />
        </mxCell>
        <mxCell id="-I7mUb_nC6sz9EPlqk-F-43" value="title" style="shape=partialRectangle;html=1;whiteSpace=wrap;connectable=0;fillColor=none;top=0;left=0;bottom=0;right=0;overflow=hidden;" vertex="1" parent="-I7mUb_nC6sz9EPlqk-F-42">
          <mxGeometry width="88" height="47" as="geometry" />
        </mxCell>
        <mxCell id="-I7mUb_nC6sz9EPlqk-F-44" value="String" style="shape=partialRectangle;html=1;whiteSpace=wrap;connectable=0;fillColor=none;top=0;left=0;bottom=0;right=0;overflow=hidden;" vertex="1" parent="-I7mUb_nC6sz9EPlqk-F-42">
          <mxGeometry x="88" width="87" height="47" as="geometry" />
        </mxCell>
        <mxCell id="-I7mUb_nC6sz9EPlqk-F-45" style="shape=partialRectangle;html=1;whiteSpace=wrap;collapsible=0;dropTarget=0;pointerEvents=0;fillColor=none;top=0;left=0;bottom=0;right=0;points=[[0,0.5],[1,0.5]];portConstraint=eastwest;" vertex="1" parent="-I7mUb_nC6sz9EPlqk-F-32">
          <mxGeometry y="170" width="175" height="47" as="geometry" />
        </mxCell>
        <mxCell id="-I7mUb_nC6sz9EPlqk-F-46" value="amount" style="shape=partialRectangle;html=1;whiteSpace=wrap;connectable=0;fillColor=none;top=0;left=0;bottom=0;right=0;overflow=hidden;" vertex="1" parent="-I7mUb_nC6sz9EPlqk-F-45">
          <mxGeometry width="88" height="47" as="geometry" />
        </mxCell>
        <mxCell id="-I7mUb_nC6sz9EPlqk-F-47" value="Number" style="shape=partialRectangle;html=1;whiteSpace=wrap;connectable=0;fillColor=none;top=0;left=0;bottom=0;right=0;overflow=hidden;" vertex="1" parent="-I7mUb_nC6sz9EPlqk-F-45">
          <mxGeometry x="88" width="87" height="47" as="geometry" />
        </mxCell>
        <mxCell id="-I7mUb_nC6sz9EPlqk-F-58" style="shape=partialRectangle;html=1;whiteSpace=wrap;collapsible=0;dropTarget=0;pointerEvents=0;fillColor=none;top=0;left=0;bottom=0;right=0;points=[[0,0.5],[1,0.5]];portConstraint=eastwest;" vertex="1" parent="-I7mUb_nC6sz9EPlqk-F-32">
          <mxGeometry y="217" width="175" height="47" as="geometry" />
        </mxCell>
        <mxCell id="-I7mUb_nC6sz9EPlqk-F-59" value="occurrenceDate" style="shape=partialRectangle;html=1;whiteSpace=wrap;connectable=0;fillColor=none;top=0;left=0;bottom=0;right=0;overflow=hidden;" vertex="1" parent="-I7mUb_nC6sz9EPlqk-F-58">
          <mxGeometry width="88" height="47" as="geometry" />
        </mxCell>
        <mxCell id="-I7mUb_nC6sz9EPlqk-F-60" value="Date" style="shape=partialRectangle;html=1;whiteSpace=wrap;connectable=0;fillColor=none;top=0;left=0;bottom=0;right=0;overflow=hidden;" vertex="1" parent="-I7mUb_nC6sz9EPlqk-F-58">
          <mxGeometry x="88" width="87" height="47" as="geometry" />
        </mxCell>
        <mxCell id="-I7mUb_nC6sz9EPlqk-F-55" style="shape=partialRectangle;html=1;whiteSpace=wrap;collapsible=0;dropTarget=0;pointerEvents=0;fillColor=none;top=0;left=0;bottom=0;right=0;points=[[0,0.5],[1,0.5]];portConstraint=eastwest;" vertex="1" parent="-I7mUb_nC6sz9EPlqk-F-32">
          <mxGeometry y="264" width="175" height="47" as="geometry" />
        </mxCell>
        <mxCell id="-I7mUb_nC6sz9EPlqk-F-56" value="recurrence" style="shape=partialRectangle;html=1;whiteSpace=wrap;connectable=0;fillColor=none;top=0;left=0;bottom=0;right=0;overflow=hidden;" vertex="1" parent="-I7mUb_nC6sz9EPlqk-F-55">
          <mxGeometry width="88" height="47" as="geometry" />
        </mxCell>
        <mxCell id="-I7mUb_nC6sz9EPlqk-F-57" value="Recurrence" style="shape=partialRectangle;html=1;whiteSpace=wrap;connectable=0;fillColor=none;top=0;left=0;bottom=0;right=0;overflow=hidden;" vertex="1" parent="-I7mUb_nC6sz9EPlqk-F-55">
          <mxGeometry x="88" width="87" height="47" as="geometry" />
        </mxCell>
        <mxCell id="-I7mUb_nC6sz9EPlqk-F-48" style="shape=partialRectangle;html=1;whiteSpace=wrap;collapsible=0;dropTarget=0;pointerEvents=0;fillColor=none;top=0;left=0;bottom=0;right=0;points=[[0,0.5],[1,0.5]];portConstraint=eastwest;" vertex="1" parent="-I7mUb_nC6sz9EPlqk-F-32">
          <mxGeometry y="311" width="175" height="47" as="geometry" />
        </mxCell>
        <mxCell id="-I7mUb_nC6sz9EPlqk-F-49" value="createdOn" style="shape=partialRectangle;html=1;whiteSpace=wrap;connectable=0;fillColor=none;top=0;left=0;bottom=0;right=0;overflow=hidden;" vertex="1" parent="-I7mUb_nC6sz9EPlqk-F-48">
          <mxGeometry width="88" height="47" as="geometry" />
        </mxCell>
        <mxCell id="-I7mUb_nC6sz9EPlqk-F-50" value="Date" style="shape=partialRectangle;html=1;whiteSpace=wrap;connectable=0;fillColor=none;top=0;left=0;bottom=0;right=0;overflow=hidden;" vertex="1" parent="-I7mUb_nC6sz9EPlqk-F-48">
          <mxGeometry x="88" width="87" height="47" as="geometry" />
        </mxCell>
        <mxCell id="-I7mUb_nC6sz9EPlqk-F-51" style="shape=partialRectangle;html=1;whiteSpace=wrap;collapsible=0;dropTarget=0;pointerEvents=0;fillColor=none;top=0;left=0;bottom=0;right=0;points=[[0,0.5],[1,0.5]];portConstraint=eastwest;" vertex="1" parent="-I7mUb_nC6sz9EPlqk-F-32">
          <mxGeometry y="358" width="175" height="47" as="geometry" />
        </mxCell>
        <mxCell id="-I7mUb_nC6sz9EPlqk-F-52" value="modifiedOn" style="shape=partialRectangle;html=1;whiteSpace=wrap;connectable=0;fillColor=none;top=0;left=0;bottom=0;right=0;overflow=hidden;" vertex="1" parent="-I7mUb_nC6sz9EPlqk-F-51">
          <mxGeometry width="88" height="47" as="geometry" />
        </mxCell>
        <mxCell id="-I7mUb_nC6sz9EPlqk-F-53" value="Date" style="shape=partialRectangle;html=1;whiteSpace=wrap;connectable=0;fillColor=none;top=0;left=0;bottom=0;right=0;overflow=hidden;" vertex="1" parent="-I7mUb_nC6sz9EPlqk-F-51">
          <mxGeometry x="88" width="87" height="47" as="geometry" />
        </mxCell>
        <mxCell id="-I7mUb_nC6sz9EPlqk-F-54" value="Payment" style="text;html=1;strokeColor=none;fillColor=none;align=center;verticalAlign=middle;whiteSpace=wrap;rounded=0;fontSize=24;" vertex="1" parent="1">
          <mxGeometry x="930" y="260" width="40" height="20" as="geometry" />
        </mxCell>
        <mxCell id="-I7mUb_nC6sz9EPlqk-F-61" value="" style="whiteSpace=wrap;html=1;aspect=fixed;fontSize=24;" vertex="1" parent="1">
          <mxGeometry x="740" y="-240" width="280" height="280" as="geometry" />
        </mxCell>
        <mxCell id="-I7mUb_nC6sz9EPlqk-F-63" value="Recurrence" style="text;html=1;strokeColor=none;fillColor=none;align=center;verticalAlign=middle;whiteSpace=wrap;rounded=0;fontSize=24;" vertex="1" parent="1">
          <mxGeometry x="860" y="-230" width="40" height="20" as="geometry" />
        </mxCell>
        <mxCell id="-I7mUb_nC6sz9EPlqk-F-77" value="" style="shape=table;html=1;whiteSpace=wrap;startSize=0;container=1;collapsible=0;childLayout=tableLayout;" vertex="1" parent="1">
          <mxGeometry x="835" y="-190" width="90" height="200" as="geometry" />
        </mxCell>
        <mxCell id="-I7mUb_nC6sz9EPlqk-F-78" value="" style="shape=partialRectangle;html=1;whiteSpace=wrap;collapsible=0;dropTarget=0;pointerEvents=0;fillColor=none;top=0;left=0;bottom=0;right=0;points=[[0,0.5],[1,0.5]];portConstraint=eastwest;" vertex="1" parent="-I7mUb_nC6sz9EPlqk-F-77">
          <mxGeometry width="90" height="40" as="geometry" />
        </mxCell>
        <mxCell id="-I7mUb_nC6sz9EPlqk-F-79" value="Daily" style="shape=partialRectangle;html=1;whiteSpace=wrap;connectable=0;overflow=hidden;fillColor=none;top=0;left=0;bottom=0;right=0;" vertex="1" parent="-I7mUb_nC6sz9EPlqk-F-78">
          <mxGeometry width="90" height="40" as="geometry" />
        </mxCell>
        <mxCell id="-I7mUb_nC6sz9EPlqk-F-80" value="" style="shape=partialRectangle;html=1;whiteSpace=wrap;collapsible=0;dropTarget=0;pointerEvents=0;fillColor=none;top=0;left=0;bottom=0;right=0;points=[[0,0.5],[1,0.5]];portConstraint=eastwest;" vertex="1" parent="-I7mUb_nC6sz9EPlqk-F-77">
          <mxGeometry y="40" width="90" height="40" as="geometry" />
        </mxCell>
        <mxCell id="-I7mUb_nC6sz9EPlqk-F-81" value="Weekly" style="shape=partialRectangle;html=1;whiteSpace=wrap;connectable=0;overflow=hidden;fillColor=none;top=0;left=0;bottom=0;right=0;" vertex="1" parent="-I7mUb_nC6sz9EPlqk-F-80">
          <mxGeometry width="90" height="40" as="geometry" />
        </mxCell>
        <mxCell id="-I7mUb_nC6sz9EPlqk-F-82" value="" style="shape=partialRectangle;html=1;whiteSpace=wrap;collapsible=0;dropTarget=0;pointerEvents=0;fillColor=none;top=0;left=0;bottom=0;right=0;points=[[0,0.5],[1,0.5]];portConstraint=eastwest;" vertex="1" parent="-I7mUb_nC6sz9EPlqk-F-77">
          <mxGeometry y="80" width="90" height="40" as="geometry" />
        </mxCell>
        <mxCell id="-I7mUb_nC6sz9EPlqk-F-83" value="Biweekly" style="shape=partialRectangle;html=1;whiteSpace=wrap;connectable=0;overflow=hidden;fillColor=none;top=0;left=0;bottom=0;right=0;" vertex="1" parent="-I7mUb_nC6sz9EPlqk-F-82">
          <mxGeometry width="90" height="40" as="geometry" />
        </mxCell>
        <mxCell id="-I7mUb_nC6sz9EPlqk-F-84" value="" style="shape=partialRectangle;html=1;whiteSpace=wrap;collapsible=0;dropTarget=0;pointerEvents=0;fillColor=none;top=0;left=0;bottom=0;right=0;points=[[0,0.5],[1,0.5]];portConstraint=eastwest;" vertex="1" parent="-I7mUb_nC6sz9EPlqk-F-77">
          <mxGeometry y="120" width="90" height="40" as="geometry" />
        </mxCell>
        <mxCell id="-I7mUb_nC6sz9EPlqk-F-85" value="Monthly" style="shape=partialRectangle;html=1;whiteSpace=wrap;connectable=0;overflow=hidden;fillColor=none;top=0;left=0;bottom=0;right=0;" vertex="1" parent="-I7mUb_nC6sz9EPlqk-F-84">
          <mxGeometry width="90" height="40" as="geometry" />
        </mxCell>
        <mxCell id="-I7mUb_nC6sz9EPlqk-F-86" value="" style="shape=partialRectangle;html=1;whiteSpace=wrap;collapsible=0;dropTarget=0;pointerEvents=0;fillColor=none;top=0;left=0;bottom=0;right=0;points=[[0,0.5],[1,0.5]];portConstraint=eastwest;" vertex="1" parent="-I7mUb_nC6sz9EPlqk-F-77">
          <mxGeometry y="160" width="90" height="40" as="geometry" />
        </mxCell>
        <mxCell id="-I7mUb_nC6sz9EPlqk-F-87" value="Yearly" style="shape=partialRectangle;html=1;whiteSpace=wrap;connectable=0;overflow=hidden;fillColor=none;top=0;left=0;bottom=0;right=0;" vertex="1" parent="-I7mUb_nC6sz9EPlqk-F-86">
          <mxGeometry width="90" height="40" as="geometry" />
        </mxCell>
        <mxCell id="-I7mUb_nC6sz9EPlqk-F-88" value="" style="edgeStyle=entityRelationEdgeStyle;fontSize=12;html=1;endArrow=ERmany;startArrow=ERmany;exitX=1;exitY=0.5;exitDx=0;exitDy=0;entryX=0;entryY=0.449;entryDx=0;entryDy=0;entryPerimeter=0;" edge="1" parent="1" source="-I7mUb_nC6sz9EPlqk-F-1" target="-I7mUb_nC6sz9EPlqk-F-30">
          <mxGeometry width="100" height="100" relative="1" as="geometry">
            <mxPoint x="550" y="510" as="sourcePoint" />
            <mxPoint x="650" y="410" as="targetPoint" />
          </mxGeometry>
        </mxCell>
        <mxCell id="-I7mUb_nC6sz9EPlqk-F-89" value="" style="whiteSpace=wrap;html=1;aspect=fixed;" vertex="1" parent="1">
          <mxGeometry x="-10" y="790" width="490" height="490" as="geometry" />
        </mxCell>
        <mxCell id="-I7mUb_nC6sz9EPlqk-F-90" value="" style="shape=table;html=1;whiteSpace=wrap;startSize=0;container=1;collapsible=0;childLayout=tableLayout;" vertex="1" parent="1">
          <mxGeometry x="152.5" y="844.5" width="175" height="405" as="geometry" />
        </mxCell>
        <mxCell id="-I7mUb_nC6sz9EPlqk-F-91" value="" style="shape=partialRectangle;html=1;whiteSpace=wrap;collapsible=0;dropTarget=0;pointerEvents=0;fillColor=none;top=0;left=0;bottom=0;right=0;points=[[0,0.5],[1,0.5]];portConstraint=eastwest;" vertex="1" parent="-I7mUb_nC6sz9EPlqk-F-90">
          <mxGeometry width="175" height="30" as="geometry" />
        </mxCell>
        <mxCell id="-I7mUb_nC6sz9EPlqk-F-92" value="Name" style="shape=partialRectangle;html=1;whiteSpace=wrap;connectable=0;fillColor=none;top=0;left=0;bottom=0;right=0;overflow=hidden;" vertex="1" parent="-I7mUb_nC6sz9EPlqk-F-91">
          <mxGeometry width="88" height="30" as="geometry" />
        </mxCell>
        <mxCell id="-I7mUb_nC6sz9EPlqk-F-93" value="Type" style="shape=partialRectangle;html=1;whiteSpace=wrap;connectable=0;fillColor=none;top=0;left=0;bottom=0;right=0;overflow=hidden;" vertex="1" parent="-I7mUb_nC6sz9EPlqk-F-91">
          <mxGeometry x="88" width="87" height="30" as="geometry" />
        </mxCell>
        <mxCell id="-I7mUb_nC6sz9EPlqk-F-94" value="" style="shape=partialRectangle;html=1;whiteSpace=wrap;collapsible=0;dropTarget=0;pointerEvents=0;fillColor=none;top=0;left=0;bottom=0;right=0;points=[[0,0.5],[1,0.5]];portConstraint=eastwest;" vertex="1" parent="-I7mUb_nC6sz9EPlqk-F-90">
          <mxGeometry y="30" width="175" height="46" as="geometry" />
        </mxCell>
        <mxCell id="-I7mUb_nC6sz9EPlqk-F-95" value="_id" style="shape=partialRectangle;html=1;whiteSpace=wrap;connectable=0;fillColor=none;top=0;left=0;bottom=0;right=0;overflow=hidden;" vertex="1" parent="-I7mUb_nC6sz9EPlqk-F-94">
          <mxGeometry width="88" height="46" as="geometry" />
        </mxCell>
        <mxCell id="-I7mUb_nC6sz9EPlqk-F-96" value="ObjectId" style="shape=partialRectangle;html=1;whiteSpace=wrap;connectable=0;fillColor=none;top=0;left=0;bottom=0;right=0;overflow=hidden;" vertex="1" parent="-I7mUb_nC6sz9EPlqk-F-94">
          <mxGeometry x="88" width="87" height="46" as="geometry" />
        </mxCell>
        <mxCell id="-I7mUb_nC6sz9EPlqk-F-97" value="" style="shape=partialRectangle;html=1;whiteSpace=wrap;collapsible=0;dropTarget=0;pointerEvents=0;fillColor=none;top=0;left=0;bottom=0;right=0;points=[[0,0.5],[1,0.5]];portConstraint=eastwest;" vertex="1" parent="-I7mUb_nC6sz9EPlqk-F-90">
          <mxGeometry y="76" width="175" height="47" as="geometry" />
        </mxCell>
        <mxCell id="-I7mUb_nC6sz9EPlqk-F-98" value="userId" style="shape=partialRectangle;html=1;whiteSpace=wrap;connectable=0;fillColor=none;top=0;left=0;bottom=0;right=0;overflow=hidden;" vertex="1" parent="-I7mUb_nC6sz9EPlqk-F-97">
          <mxGeometry width="88" height="47" as="geometry" />
        </mxCell>
        <mxCell id="-I7mUb_nC6sz9EPlqk-F-99" value="ObjectId" style="shape=partialRectangle;html=1;whiteSpace=wrap;connectable=0;fillColor=none;top=0;left=0;bottom=0;right=0;overflow=hidden;" vertex="1" parent="-I7mUb_nC6sz9EPlqk-F-97">
          <mxGeometry x="88" width="87" height="47" as="geometry" />
        </mxCell>
        <mxCell id="-I7mUb_nC6sz9EPlqk-F-100" style="shape=partialRectangle;html=1;whiteSpace=wrap;collapsible=0;dropTarget=0;pointerEvents=0;fillColor=none;top=0;left=0;bottom=0;right=0;points=[[0,0.5],[1,0.5]];portConstraint=eastwest;" vertex="1" parent="-I7mUb_nC6sz9EPlqk-F-90">
          <mxGeometry y="123" width="175" height="47" as="geometry" />
        </mxCell>
        <mxCell id="-I7mUb_nC6sz9EPlqk-F-101" value="title" style="shape=partialRectangle;html=1;whiteSpace=wrap;connectable=0;fillColor=none;top=0;left=0;bottom=0;right=0;overflow=hidden;" vertex="1" parent="-I7mUb_nC6sz9EPlqk-F-100">
          <mxGeometry width="88" height="47" as="geometry" />
        </mxCell>
        <mxCell id="-I7mUb_nC6sz9EPlqk-F-102" value="String" style="shape=partialRectangle;html=1;whiteSpace=wrap;connectable=0;fillColor=none;top=0;left=0;bottom=0;right=0;overflow=hidden;" vertex="1" parent="-I7mUb_nC6sz9EPlqk-F-100">
          <mxGeometry x="88" width="87" height="47" as="geometry" />
        </mxCell>
        <mxCell id="-I7mUb_nC6sz9EPlqk-F-103" style="shape=partialRectangle;html=1;whiteSpace=wrap;collapsible=0;dropTarget=0;pointerEvents=0;fillColor=none;top=0;left=0;bottom=0;right=0;points=[[0,0.5],[1,0.5]];portConstraint=eastwest;" vertex="1" parent="-I7mUb_nC6sz9EPlqk-F-90">
          <mxGeometry y="170" width="175" height="47" as="geometry" />
        </mxCell>
        <mxCell id="-I7mUb_nC6sz9EPlqk-F-104" value="amount" style="shape=partialRectangle;html=1;whiteSpace=wrap;connectable=0;fillColor=none;top=0;left=0;bottom=0;right=0;overflow=hidden;" vertex="1" parent="-I7mUb_nC6sz9EPlqk-F-103">
          <mxGeometry width="88" height="47" as="geometry" />
        </mxCell>
        <mxCell id="-I7mUb_nC6sz9EPlqk-F-105" value="Number" style="shape=partialRectangle;html=1;whiteSpace=wrap;connectable=0;fillColor=none;top=0;left=0;bottom=0;right=0;overflow=hidden;" vertex="1" parent="-I7mUb_nC6sz9EPlqk-F-103">
          <mxGeometry x="88" width="87" height="47" as="geometry" />
        </mxCell>
        <mxCell id="-I7mUb_nC6sz9EPlqk-F-106" style="shape=partialRectangle;html=1;whiteSpace=wrap;collapsible=0;dropTarget=0;pointerEvents=0;fillColor=none;top=0;left=0;bottom=0;right=0;points=[[0,0.5],[1,0.5]];portConstraint=eastwest;" vertex="1" parent="-I7mUb_nC6sz9EPlqk-F-90">
          <mxGeometry y="217" width="175" height="47" as="geometry" />
        </mxCell>
        <mxCell id="-I7mUb_nC6sz9EPlqk-F-107" value="occurrenceDate" style="shape=partialRectangle;html=1;whiteSpace=wrap;connectable=0;fillColor=none;top=0;left=0;bottom=0;right=0;overflow=hidden;" vertex="1" parent="-I7mUb_nC6sz9EPlqk-F-106">
          <mxGeometry width="88" height="47" as="geometry" />
        </mxCell>
        <mxCell id="-I7mUb_nC6sz9EPlqk-F-108" value="Date" style="shape=partialRectangle;html=1;whiteSpace=wrap;connectable=0;fillColor=none;top=0;left=0;bottom=0;right=0;overflow=hidden;" vertex="1" parent="-I7mUb_nC6sz9EPlqk-F-106">
          <mxGeometry x="88" width="87" height="47" as="geometry" />
        </mxCell>
        <mxCell id="-I7mUb_nC6sz9EPlqk-F-109" style="shape=partialRectangle;html=1;whiteSpace=wrap;collapsible=0;dropTarget=0;pointerEvents=0;fillColor=none;top=0;left=0;bottom=0;right=0;points=[[0,0.5],[1,0.5]];portConstraint=eastwest;" vertex="1" parent="-I7mUb_nC6sz9EPlqk-F-90">
          <mxGeometry y="264" width="175" height="47" as="geometry" />
        </mxCell>
        <mxCell id="-I7mUb_nC6sz9EPlqk-F-110" value="recurrence" style="shape=partialRectangle;html=1;whiteSpace=wrap;connectable=0;fillColor=none;top=0;left=0;bottom=0;right=0;overflow=hidden;" vertex="1" parent="-I7mUb_nC6sz9EPlqk-F-109">
          <mxGeometry width="88" height="47" as="geometry" />
        </mxCell>
        <mxCell id="-I7mUb_nC6sz9EPlqk-F-111" value="Recurrence" style="shape=partialRectangle;html=1;whiteSpace=wrap;connectable=0;fillColor=none;top=0;left=0;bottom=0;right=0;overflow=hidden;" vertex="1" parent="-I7mUb_nC6sz9EPlqk-F-109">
          <mxGeometry x="88" width="87" height="47" as="geometry" />
        </mxCell>
        <mxCell id="-I7mUb_nC6sz9EPlqk-F-112" style="shape=partialRectangle;html=1;whiteSpace=wrap;collapsible=0;dropTarget=0;pointerEvents=0;fillColor=none;top=0;left=0;bottom=0;right=0;points=[[0,0.5],[1,0.5]];portConstraint=eastwest;" vertex="1" parent="-I7mUb_nC6sz9EPlqk-F-90">
          <mxGeometry y="311" width="175" height="47" as="geometry" />
        </mxCell>
        <mxCell id="-I7mUb_nC6sz9EPlqk-F-113" value="createdOn" style="shape=partialRectangle;html=1;whiteSpace=wrap;connectable=0;fillColor=none;top=0;left=0;bottom=0;right=0;overflow=hidden;" vertex="1" parent="-I7mUb_nC6sz9EPlqk-F-112">
          <mxGeometry width="88" height="47" as="geometry" />
        </mxCell>
        <mxCell id="-I7mUb_nC6sz9EPlqk-F-114" value="Date" style="shape=partialRectangle;html=1;whiteSpace=wrap;connectable=0;fillColor=none;top=0;left=0;bottom=0;right=0;overflow=hidden;" vertex="1" parent="-I7mUb_nC6sz9EPlqk-F-112">
          <mxGeometry x="88" width="87" height="47" as="geometry" />
        </mxCell>
        <mxCell id="-I7mUb_nC6sz9EPlqk-F-115" style="shape=partialRectangle;html=1;whiteSpace=wrap;collapsible=0;dropTarget=0;pointerEvents=0;fillColor=none;top=0;left=0;bottom=0;right=0;points=[[0,0.5],[1,0.5]];portConstraint=eastwest;" vertex="1" parent="-I7mUb_nC6sz9EPlqk-F-90">
          <mxGeometry y="358" width="175" height="47" as="geometry" />
        </mxCell>
        <mxCell id="-I7mUb_nC6sz9EPlqk-F-116" value="modifiedOn" style="shape=partialRectangle;html=1;whiteSpace=wrap;connectable=0;fillColor=none;top=0;left=0;bottom=0;right=0;overflow=hidden;" vertex="1" parent="-I7mUb_nC6sz9EPlqk-F-115">
          <mxGeometry width="88" height="47" as="geometry" />
        </mxCell>
        <mxCell id="-I7mUb_nC6sz9EPlqk-F-117" value="Date" style="shape=partialRectangle;html=1;whiteSpace=wrap;connectable=0;fillColor=none;top=0;left=0;bottom=0;right=0;overflow=hidden;" vertex="1" parent="-I7mUb_nC6sz9EPlqk-F-115">
          <mxGeometry x="88" width="87" height="47" as="geometry" />
        </mxCell>
        <mxCell id="-I7mUb_nC6sz9EPlqk-F-118" value="Income" style="text;html=1;strokeColor=none;fillColor=none;align=center;verticalAlign=middle;whiteSpace=wrap;rounded=0;fontSize=24;" vertex="1" parent="1">
          <mxGeometry x="220" y="810" width="40" height="20" as="geometry" />
        </mxCell>
        <mxCell id="-I7mUb_nC6sz9EPlqk-F-119" value="" style="edgeStyle=entityRelationEdgeStyle;fontSize=12;html=1;endArrow=ERmany;startArrow=ERmany;exitX=1;exitY=0.286;exitDx=0;exitDy=0;exitPerimeter=0;" edge="1" parent="1" source="-I7mUb_nC6sz9EPlqk-F-89">
          <mxGeometry width="100" height="100" relative="1" as="geometry">
            <mxPoint x="215" y="750" as="sourcePoint" />
            <mxPoint x="80" y="510" as="targetPoint" />
          </mxGeometry>
        </mxCell>
      </root>
    </mxGraphModel>
  </diagram>
</mxfile>
